<?xml version="1.0" encoding="UTF-8"?>
<svg id="Layer_3" data-name="Layer 3" xmlns="http://www.w3.org/2000/svg" viewBox="0 0 50 50">
  <defs>
    <style>
      .cls-1 {
        stroke-width: .5px;
      }

      .cls-1, .cls-2, .cls-3 {
        fill: none;
        stroke: #056905;
        stroke-miterlimit: 10;
      }

      .cls-4 {
        fill: #056905;
      }

      .cls-2 {
        stroke-width: .52px;
      }

      .cls-3 {
        stroke-width: .52px;
      }
    </style>
  </defs>
  <g id="_6" data-name="6">
    <g>
      <path class="cls-4" d="M24.71,29.87c.3.03.63.04,1.01,0-.18.01-.33,0-.49,0-.16.01-.33.02-.52.01Z"/>
      <path class="cls-4" d="M37.78,14.54c-.93-.93-4.85-.53-9.92,4.54-1.47,1.47-2.52,2.81-3.27,4.01.2.29.39.58.56.85.75-1.22,1.83-2.62,3.4-4.19,4.9-4.9,8.54-5.43,9.36-4.61.21.21.38.6.44,1.15-.03-.86-.29-1.46-.57-1.75Z"/>
    </g>
    <path class="cls-4" d="M42.61,20.98c-.56-2.21-2.67-4.82-4.89-6.5,0,0,2.51,3.89-3.95,10.23-.65.64-1.25,1.17-1.83,1.66-.54.54-2.07,2.22-3.66,5.15-.19.34-.36.69-.53,1.03.8.49,1.58.9,2.21,1.11,4.89,1.58,7.06.7,7.06.7,0,0,1.7-.64,3.72-2.67,1.69-1.69,2.39-3.53,2.39-3.53,0,0,.69-2.46-.52-7.19Z"/>
    <path class="cls-4" d="M43.01,22.32c3.51-3.51,1.81-7.08.77-8.32s-3.55-2.03-4.5-1.08-.25,2.63-.25,2.63l1.12,1.29c.07-.26-.24-1.51.43-2.18s2.33.39,2.7,1.3c.54,1.36,1.3,3.59-.52,5.41l.26.94Z"/>
    <path class="cls-3" d="M40.15,16.85c.07-.26-.24-1.51.43-2.18s2.33.39,2.7,1.3c.54,1.36,1.3,3.59-.52,5.41"/>
    <path class="cls-3" d="M39.03,15.56s-.7-1.68.25-2.63,3.46-.16,4.5,1.08,2.75,4.8-.77,8.32"/>
    <path class="cls-4" d="M42.86,20.92c-.54-2.13-2.54-4.8-4.98-6.64l-.32.42c2.35,1.78,4.27,4.33,4.79,6.36,1.17,4.58.52,7.03.52,7.03,0,.02-.7,1.81-2.33,3.44-1.96,1.96-3.61,2.6-3.64,2.61-.02,0-2.17.82-6.88-.71-.61-.2-1.38-.61-2.17-1.09-.08.16-.16.31-.24.47.81.49,1.6.91,2.24,1.12,2.34.76,4.07.96,5.25.96,1.3,0,1.94-.25,1.98-.26.07-.03,1.77-.68,3.82-2.73,1.71-1.71,2.42-3.55,2.45-3.65.03-.1.69-2.59-.51-7.32Z"/>
    <path class="cls-4" d="M37.91,14.3c-1.58-1.58-6.12.48-10.33,4.69-1.35,1.35-2.38,2.66-3.14,3.88.12.16.22.32.33.47.74-1.22,1.76-2.57,3.18-3.98,3.36-3.36,6.64-5.07,8.46-5.07.49,0,.88.13,1.13.38.82.82,1.67,4.24-4.19,10.09-.52.52-1.02.98-1.5,1.4h.3s-.59.55-1.44,1.63c.91-.69,1.91-1.56,3.01-2.66,5.94-5.94,5.33-9.68,4.19-10.83Z"/>
  </g>
  <g id="_6-2" data-name="6">
    <path class="cls-4" d="M25.7,23.08c-.74-1.19-1.79-2.53-3.26-4-5.07-5.07-8.99-5.47-9.92-4.54-.29.29-.54.89-.57,1.75.06-.56.23-.95.44-1.15.82-.82,4.47-.29,9.36,4.61,1.56,1.56,2.64,2.96,3.39,4.18.17-.27.35-.56.56-.85Z"/>
    <path class="cls-4" d="M21.47,30.82c-.87-1.89-3.32-4.57-3.32-4.57h.08c-.54-.46-1.1-.96-1.69-1.54-6.46-6.34-3.95-10.23-3.95-10.23-2.22,1.68-4.32,4.29-4.89,6.5-1.2,4.72-.52,7.19-.52,7.19,0,0,.7,1.84,2.39,3.53,2.03,2.03,3.72,2.67,3.72,2.67,0,0,2.17.88,7.06-.7.57-.18,1.26-.54,1.99-.97-.29-.61-.58-1.24-.87-1.87Z"/>
    <path class="cls-4" d="M7.29,22.32c-3.51-3.51-1.81-7.08-.77-8.32s3.55-2.03,4.5-1.08.25,2.63.25,2.63l-1.12,1.29c-.07-.26.24-1.51-.43-2.18s-2.33.39-2.7,1.3c-.54,1.36-1.3,3.59.52,5.41l-.26.94Z"/>
    <path class="cls-3" d="M10.16,16.85c-.07-.26.24-1.51-.43-2.18s-2.33.39-2.7,1.3c-.54,1.36-1.3,3.59.52,5.41"/>
    <path class="cls-3" d="M11.28,15.56s.7-1.68-.25-2.63-3.46-.16-4.5,1.08-2.75,4.8.77,8.32"/>
    <path class="cls-4" d="M22.22,32.46c-.71.43-1.4.78-1.96.96-4.71,1.52-6.86.71-6.88.7-.02,0-1.67-.64-3.63-2.61-1.62-1.62-2.32-3.42-2.32-3.42,0-.02-.65-2.47.52-7.05.51-2.02,2.44-4.57,4.79-6.36l-.32-.42c-2.44,1.85-4.44,4.52-4.98,6.64-1.21,4.73-.54,7.22-.51,7.34.03.08.74,1.91,2.45,3.62,2.04,2.04,3.75,2.7,3.81,2.72.05.02.68.27,1.99.27,1.18,0,2.91-.2,5.25-.96.58-.19,1.29-.55,2.02-.98-.07-.16-.15-.32-.22-.48Z"/>
    <path class="cls-4" d="M18.15,26.26h.44c-.53-.46-1.06-.96-1.61-1.51-5.84-5.84-5-9.24-4.19-10.06.24-.24.62-.36,1.11-.36.64,0,1.47.21,2.4.62,1.87.83,4.02,2.41,6.04,4.43,1.42,1.42,2.44,2.76,3.17,3.97.11-.17.23-.34.36-.52-.76-1.21-1.78-2.52-3.13-3.86-2.07-2.07-4.28-3.69-6.22-4.55-1.92-.85-3.39-.9-4.15-.14-1.16,1.16-1.77,4.92,4.19,10.87.99.99,1.89,1.79,2.73,2.45-.64-.78-1.15-1.34-1.15-1.34Z"/>
    <path class="cls-4" d="M18.15,26.26h.44c-.53-.46-1.06-.96-1.61-1.51-5.84-5.84-5-9.24-4.19-10.06.24-.24.62-.36,1.11-.36.64,0,1.47.21,2.4.62,1.87.83,4.02,2.41,6.04,4.43,1.42,1.42,2.44,2.76,3.17,3.97.11-.17.23-.34.36-.52-.76-1.21-1.78-2.52-3.13-3.86-2.07-2.07-4.28-3.69-6.22-4.55-1.92-.85-3.39-.9-4.15-.14-1.16,1.16-1.77,4.92,4.19,10.87.99.99,1.89,1.79,2.73,2.45-.64-.78-1.15-1.34-1.15-1.34Z"/>
  </g>
  <path class="cls-2" d="M18.15,26.26s2.45,2.68,3.32,4.57c1.86,4.06,3.77,7.86,3.77,7.86,0,0,1.17-3.69,3.04-7.15,1.96-3.63,3.87-5.37,3.87-5.37"/>
  <path class="cls-1" d="M33.46,19.33c-1.05-1.04-3.46.84-5.39,2.72-1.54,1.49-2.92,4.13-2.92,4.13,0,0-1.38-2.63-2.92-4.13-1.93-1.87-4.34-3.75-5.39-2.72-.55.54-1.05,2.73,2.12,5.63,3.77,3.46,6.19,8.17,6.19,8.17,0,0,2.42-4.71,6.19-8.17,3.17-2.91,2.67-5.09,2.12-5.63Z"/>
</svg>