<?xml version="1.0" encoding="UTF-8"?>
<svg id="Layer_3" data-name="Layer 3" xmlns="http://www.w3.org/2000/svg" viewBox="0 0 50 50">
  <defs>
    <style>
      .cls-1 {
        fill: #056905;
      }

      .cls-2 {
        stroke-width: .35px;
      }

      .cls-2, .cls-3 {
        fill: none;
        stroke: #056905;
        stroke-miterlimit: 10;
      }

      .cls-3 {
        stroke-width: .52px;
      }
    </style>
  </defs>
  <g id="_5" data-name="5">
    <path class="cls-1" d="M48.62,16.67c-3.67-.88-7.41-.17-10.08,2.29-2.68,2.46-3.7,6.14-3.13,9.88,3.67.88,7.41.17,10.08-2.29,2.68-2.46,3.7-6.14,3.13-9.88ZM44.64,25.62c-2.02,1.85-4.83,2.39-7.6,1.73-.43-2.82.34-5.59,2.36-7.45,2.02-1.85,4.83-2.39,7.6-1.73.43,2.82-.34,5.59-2.36,7.45Z"/>
    <polygon class="cls-1" points="43.94 20.63 37.43 27.89 36.49 26.93 43.94 20.63"/>
    <polygon class="cls-1" points="41.8 20.19 41.71 23.06 41.32 23.02 41.8 20.19"/>
    <polygon class="cls-1" points="39.05 21.32 38.82 25.63 38.43 25.59 39.05 21.32"/>
    <polygon class="cls-1" points="44.46 23.44 39.97 24.55 40.08 24.93 44.46 23.44"/>
    <g>
      <path class="cls-1" d="M7.19,17.93c0-.87,3.05-5.16,14.84-5.16,10.14,0,14.46,3.22,14.46,4.92,0,.42-.22,1.01-.74,1.65.86-.93,1.22-1.81,1.22-2.41,0-1.93-4.47-5.57-14.96-5.57-12.2,0-15.35,4.85-15.35,5.84,0,.59.41,1.86,1.99,3.11-1.14-.98-1.45-1.92-1.45-2.38Z"/>
      <path class="cls-1" d="M21.39,23.47c.08,0,.16,0,.24,0-.08,0-.16,0-.24,0Z"/>
      <path class="cls-1" d="M20.98,23.47s.04,0,.06,0c0,0,0,0,.01,0-.02,0-.05,0-.07,0Z"/>
    </g>
    <path class="cls-1" d="M36.97,16.8c.56,4.03.03,8.91-1.67,11.78-3.64,6.13-6.9,7.97-6.9,7.97,0,0-2.63,1.18-6.12,1.18-4.19,0-6.61-1.09-6.61-1.09,0,0-3.16-1.34-6.58-8.03-1.61-3.15-2.43-11.29-2.43-11.29,0,0,.82,5.84,15.64,5.97,13.25.12,14.67-6.5,14.67-6.5Z"/>
    <path class="cls-3" d="M21.36,18.64s-3.45-.04-3.45-.92c0-.54,1.36-1,3.2-1,2.58,0,5.2.66,5.2,1.35,0,.94-1.91,2.25-5.7,2.25-4.04,0-8.28-.92-8.28-2.14,0-2.29,6.08-3.21,9.82-3.21,5.97,0,11.11,1.45,11.11,3.26,0,2.78-4.76,5.82-19.04,4.42"/>
    <path class="cls-2" d="M36.97,16.8c.56,4.03.03,8.91-1.67,11.78-3.64,6.13-6.9,7.97-6.9,7.97,0,0-2.63,1.18-6.12,1.18-4.19,0-6.61-1.09-6.61-1.09,0,0-3.16-1.34-6.58-8.03-1.61-3.15-2.43-11.29-2.43-11.29"/>
    <path class="cls-2" d="M6.65,17.2c0-1.97,5.06-5.84,15.16-5.84,9.09,0,15.16,2.71,15.16,5.45,0,1.83-2.56,6.5-15.16,6.5s-15.16-4.16-15.16-6.1Z"/>
  </g>
</svg>