<?xml version="1.0" encoding="UTF-8"?>
<svg id="Layer_2" data-name="Layer 2" xmlns="http://www.w3.org/2000/svg" viewBox="0 0 50 50">
  <defs>
    <style>
      .cls-1 {
        fill: #fff;
      }
    </style>
  </defs>
  <g>
    <path class="cls-1" d="M42.72,23.11c.87,1.23,2.33,1.89,2.33,1.89,0,0-1.46.66-2.33,1.89-.99,1.41-1.35,3.11-1.35,3.11,0,0-1.83-2.04-4.91-2.82-2.76-.7-11.47-1.17-11.47-1.17v-2.03s8.71-.47,11.47-1.17c3.08-.78,4.91-2.82,4.91-2.82,0,0,.35,1.7,1.35,3.11Z"/>
    <path class="cls-1" d="M7.28,23.11c-.87,1.23-2.33,1.89-2.33,1.89,0,0,1.46.66,2.33,1.89.99,1.41,1.35,3.11,1.35,3.11,0,0,1.83-2.04,4.91-2.82,2.76-.7,11.47-1.17,11.47-1.17v-2.03s-8.71-.47-11.47-1.17c-3.08-.78-4.91-2.82-4.91-2.82,0,0-.35,1.7-1.35,3.11Z"/>
  </g>
  <g>
    <path class="cls-1" d="M26.89,42.72c-1.23.87-1.89,2.33-1.89,2.33,0,0-.66-1.46-1.89-2.33-1.41-.99-3.11-1.35-3.11-1.35,0,0,2.04-1.83,2.82-4.91.7-2.76,1.17-11.47,1.17-11.47h2.03s.47,8.71,1.17,11.47c.78,3.08,2.82,4.91,2.82,4.91,0,0-1.7.35-3.11,1.35Z"/>
    <path class="cls-1" d="M26.89,7.28c-1.23-.87-1.89-2.33-1.89-2.33,0,0-.66,1.46-1.89,2.33-1.41.99-3.11,1.35-3.11,1.35,0,0,2.04,1.83,2.82,4.91.7,2.76,1.17,11.47,1.17,11.47h2.03s.47-8.71,1.17-11.47c.78-3.08,2.82-4.91,2.82-4.91,0,0-1.7-.35-3.11-1.35Z"/>
  </g>
</svg>