<?xml version="1.0" encoding="UTF-8"?>
<svg id="Layer_3" data-name="Layer 3" xmlns="http://www.w3.org/2000/svg" viewBox="0 0 50 50">
  <defs>
    <style>
      .cls-1 {
        fill: #056905;
      }

      .cls-2 {
        stroke-width: .52px;
      }

      .cls-2, .cls-3, .cls-4 {
        stroke: #056905;
      }

      .cls-2, .cls-3, .cls-4, .cls-5 {
        fill: none;
        stroke-miterlimit: 10;
      }

      .cls-3, .cls-5 {
        stroke-width: .35px;
      }

      .cls-4 {
        stroke-width: .52px;
      }

      .cls-5 {
        stroke: #bcdbbc;
      }
    </style>
  </defs>
  <path class="cls-2" d="M31.81,38.38v-1.42c0-2.04-1.66-3.7-3.7-3.7h-15.53c0,2.9,2.35,5.24,5.24,5.24h7.18v5.34h6.83v-5.47h-.03Z"/>
  <g id="_1" data-name="1">
    <path class="cls-1" d="M32.64,25.65s4.07,1.26,4.07,3.36c0,2.83-4.76,5.3-14.52,5.3-10.87,0-14.52-3.46-14.52-5.43s4.61-3.11,4.61-3.11l20.36-.11Z"/>
    <g>
      <path class="cls-1" d="M7.48,10.42c0-.87,3.05-5.16,14.84-5.16,10.14,0,14.46,3.22,14.46,4.92,0,.42-.22,1.01-.74,1.65.86-.93,1.22-1.81,1.22-2.41,0-1.93-4.47-5.57-14.96-5.57-12.2,0-15.35,4.85-15.35,5.84,0,.59.41,1.86,1.99,3.11-1.14-.98-1.45-1.92-1.45-2.38Z"/>
      <path class="cls-1" d="M21.69,15.97c.08,0,.16,0,.24,0-.08,0-.16,0-.24,0Z"/>
      <path class="cls-1" d="M21.28,15.96s.04,0,.06,0c0,0,0,0,.01,0-.02,0-.05,0-.07,0Z"/>
    </g>
    <path class="cls-1" d="M37.27,9.3c.56,4.03.03,8.91-1.67,11.78-3.64,6.13-6.9,7.97-6.9,7.97,0,0-2.63,1.18-6.12,1.18-4.19,0-6.61-1.09-6.61-1.09,0,0-3.16-1.34-6.58-8.03-1.61-3.15-2.43-11.29-2.43-11.29,0,0,.82,5.84,15.64,5.97,13.25.12,14.67-6.5,14.67-6.5Z"/>
    <path class="cls-1" d="M37.17,9.3c.56,4.03.03,8.91-1.67,11.78-3.64,6.13-6.9,7.97-6.9,7.97,0,0-2.63,1.18-6.12,1.18-4.19,0-6.61-1.09-6.61-1.09,0,0-3.16-1.34-6.58-8.03-1.61-3.15-2.43-11.29-2.43-11.29,0,0,.82,5.84,15.64,5.97,13.25.12,14.67-6.5,14.67-6.5Z"/>
    <path class="cls-1" d="M34.63,22.89c7.27,0,9.2-5.45,9.4-7.82s-1.58-5.78-3.54-5.78-2.98,2.46-2.98,2.46l-.18,2.5c.34-.2,1.32-1.81,2.7-1.81s2.02,2.81,1.44,4.13c-.85,1.97-2.37,5.07-6.14,5.07l-.7,1.24Z"/>
    <path class="cls-4" d="M21.66,11.13s-3.45-.04-3.45-.92c0-.54,1.36-1,3.2-1,2.58,0,5.2.66,5.2,1.35,0,.94-1.91,2.25-5.7,2.25-4.04,0-8.28-.92-8.28-2.14,0-2.29,6.08-3.21,9.82-3.21,5.97,0,11.11,1.45,11.11,3.26,0,2.78-4.76,5.82-19.04,4.42"/>
    <path class="cls-3" d="M37.33,14.25c.34-.2,1.32-1.81,2.7-1.81s2.02,2.81,1.44,4.13c-.85,1.97-2.37,5.07-6.14,5.07"/>
    <path class="cls-3" d="M37.51,11.76s1.01-2.46,2.98-2.46,3.74,3.41,3.54,5.78-2.13,7.82-9.4,7.82"/>
    <path class="cls-3" d="M32.64,25.65s4.07,1.26,4.07,3.36c0,2.83-4.76,5.3-14.52,5.3-10.87,0-14.52-3.46-14.52-5.43s4.61-3.11,4.61-3.11"/>
    <path class="cls-5" d="M32.57,25.42c-2.24,2.71-3.87,3.63-3.87,3.63,0,0-2.63,1.18-6.12,1.18-4.19,0-6.61-1.09-6.61-1.09,0,0-1.61-.68-3.77-3.49"/>
    <path class="cls-3" d="M6.95,9.69c0-1.97,5.06-5.84,15.16-5.84,9.09,0,15.16,2.71,15.16,5.45,0,1.83-2.56,6.5-15.16,6.5s-15.16-4.16-15.16-6.1Z"/>
  </g>
</svg>