<?xml version="1.0" encoding="UTF-8"?>
<svg id="Layer_3" data-name="Layer 3" xmlns="http://www.w3.org/2000/svg" viewBox="0 0 50 50">
  <defs>
    <style>
      .cls-1 {
        fill: #056905;
      }

      .cls-2 {
        stroke-width: .52px;
      }

      .cls-2, .cls-3 {
        fill: none;
        stroke: #056905;
        stroke-miterlimit: 10;
      }

      .cls-3 {
        stroke-width: .35px;
      }
    </style>
  </defs>
  <g id="_2" data-name="2">
    <g>
      <path class="cls-1" d="M7.48,18.38c0-.87,3.05-5.16,14.84-5.16,10.14,0,14.46,3.22,14.46,4.92,0,.42-.22,1.01-.74,1.65.86-.93,1.22-1.81,1.22-2.41,0-1.93-4.47-5.57-14.96-5.57-12.2,0-15.35,4.85-15.35,5.84,0,.59.41,1.86,1.99,3.11-1.14-.98-1.45-1.92-1.45-2.38Z"/>
      <path class="cls-1" d="M21.69,23.93c.08,0,.16,0,.24,0-.08,0-.16,0-.24,0Z"/>
      <path class="cls-1" d="M21.28,23.92s.04,0,.06,0c0,0,0,0,.01,0-.02,0-.05,0-.07,0Z"/>
    </g>
    <path class="cls-1" d="M37.27,17.26c.56,4.03.03,8.91-1.67,11.78-3.64,6.13-6.9,7.97-6.9,7.97,0,0-2.63,1.18-6.12,1.18-4.19,0-6.61-1.09-6.61-1.09,0,0-3.16-1.34-6.58-8.03-1.61-3.15-2.43-11.29-2.43-11.29,0,0,.82,5.84,15.64,5.97,13.25.12,14.67-6.5,14.67-6.5Z"/>
    <path class="cls-2" d="M22.22,17.62h7.74c0,2.67-3.49,4.87-7.74,4.87s-7.74-2.2-7.74-4.87h7.74Z"/>
    <path class="cls-2" d="M11.72,17.45c.35-.41,1.35-1.47,3.05-1.92,1.83-.49,3.32.03,3.81.22"/>
    <path class="cls-2" d="M32.38,17.26c-.35-.41-1.35-1.47-3.05-1.92-1.83-.49-3.32.03-3.81.22"/>
    <path class="cls-1" d="M34.63,30.85c7.27,0,9.2-5.45,9.4-7.82s-1.58-5.78-3.54-5.78-2.98,2.46-2.98,2.46l-.18,2.5c.34-.2,1.32-1.81,2.7-1.81s2.02,2.81,1.44,4.13c-.85,1.97-2.37,5.07-6.14,5.07l-.7,1.24Z"/>
    <path class="cls-3" d="M37.33,22.21c.34-.2,1.32-1.81,2.7-1.81s2.02,2.81,1.44,4.13c-.85,1.97-2.37,5.07-6.14,5.07"/>
    <path class="cls-3" d="M37.51,19.72s1.01-2.46,2.98-2.46,3.74,3.41,3.54,5.78-2.13,7.82-9.4,7.82"/>
    <path class="cls-3" d="M37.27,17.26c.56,4.03.03,8.91-1.67,11.78-3.64,6.13-6.9,7.97-6.9,7.97,0,0-2.63,1.18-6.12,1.18-4.19,0-6.61-1.09-6.61-1.09,0,0-3.16-1.34-6.58-8.03-1.61-3.15-2.43-11.29-2.43-11.29"/>
    <path class="cls-3" d="M6.95,17.65c0-1.97,5.06-5.84,15.16-5.84,9.09,0,15.16,2.71,15.16,5.45,0,1.83-2.56,6.5-15.16,6.5s-15.16-4.16-15.16-6.1Z"/>
  </g>
</svg>