<?xml version="1.0" encoding="UTF-8"?>
<svg id="Layer_3" data-name="Layer 3" xmlns="http://www.w3.org/2000/svg" viewBox="0 0 50 50">
  <defs>
    <style>
      .cls-1 {
        fill: #056905;
      }

      .cls-2 {
        fill: #fff;
        stroke-width: .52px;
      }

      .cls-2, .cls-3 {
        stroke: #056905;
        stroke-miterlimit: 10;
      }

      .cls-3 {
        fill: none;
        stroke-width: .35px;
      }
    </style>
  </defs>
  <g id="_4" data-name="4">
    <g>
      <path class="cls-1" d="M17.78,34.95c-.72,0-4.23-2.5-4.23-12.16,0-8.3,2.63-11.84,4.03-11.84.35,0,.83.18,1.35.61-.76-.7-1.48-1-1.97-1-1.58,0-4.56,3.66-4.56,12.25,0,9.99,3.97,12.58,4.78,12.58.48,0,1.52-.34,2.55-1.63-.8.93-1.57,1.19-1.95,1.19Z"/>
      <path class="cls-1" d="M22.33,23.31c0-.07,0-.13,0-.2,0,.06,0,.13,0,.2Z"/>
      <path class="cls-1" d="M22.32,23.65s0-.03,0-.05c0,0,0,0,0-.01,0,.02,0,.04,0,.06Z"/>
    </g>
    <path class="cls-1" d="M16.87,10.55c3.3-.46,7.3-.03,9.65,1.37,5.02,2.98,6.53,5.65,6.53,5.65,0,0,.97,2.15.97,5.02,0,3.43-.9,5.42-.9,5.42,0,0-1.09,2.59-6.58,5.39-2.58,1.32-9.25,1.99-9.25,1.99,0,0,4.78-.67,4.89-12.81.1-10.85-5.32-12.02-5.32-12.02Z"/>
    <path class="cls-1" d="M28,12.71c0-5.96-4.47-7.54-6.4-7.7s-4.73,1.29-4.73,2.9,2.02,2.44,2.02,2.44l2.04.15c-.16-.28-1.48-1.08-1.48-2.21s2.31-1.65,3.39-1.18c1.61.7,4.15,1.94,4.15,5.03l1.02.57Z"/>
    <path class="cls-3" d="M20.92,10.5c-.16-.28-1.48-1.08-1.48-2.21s2.31-1.65,3.39-1.18c1.61.7,4.15,1.94,4.15,5.03"/>
    <path class="cls-3" d="M18.88,10.35s-2.02-.82-2.02-2.44,2.8-3.06,4.73-2.9,6.4,1.74,6.4,7.7"/>
    <path class="cls-3" d="M17.19,35.38c-1.61,0-4.78-4.14-4.78-12.42,0-7.45,2.22-12.42,4.46-12.42,1.5,0,5.32,2.1,5.32,12.42,0,10.32-3.4,12.42-5,12.42Z"/>
    <path class="cls-2" d="M21.21,36.66h-2.72c.01-.37.03-.72.07-1.03.19-1.62.87-3.6.87-3.6h-2.99s.68,1.98.87,3.6c.04.32.06.67.08,1.03h-2.73v.83h2.75c.03,2.37-.18,5.2.05,6.54.14.8.63.96.63.96,0,0,.5-.09.63-.96.13-.89-.23-4.03-.24-6.54h2.73v-.83Z"/>
    <path class="cls-2" d="M15.84,22.48c-1.31,1.05-1.75,3.55-1.54,5.76.93,4.49,2.62,5.06,3.77,5.06.85,0,3.93-.63,3.81-9.81,0-.22-.22-.48-.56-.75-1.55-1.29-3.89-1.51-5.48-.27Z"/>
  </g>
</svg>