<?xml version="1.0" encoding="UTF-8"?>
<svg id="Layer_1" data-name="Layer 1" xmlns="http://www.w3.org/2000/svg" viewBox="0 0 80 80">
  <defs>
    <style>
      .cls-1 {
        fill: #fff;
      }
    </style>
  </defs>
  <path class="cls-1" d="M29.74,50.34l3.64-.84c.08-.02.2-.05.36-.1,1-.27,1.86-.92,2.4-1.81.53-.89.7-1.95.47-2.97,0-.02-.01-.04-.02-.07-.12-.49-.33-.94-.62-1.35-.41-.52-.91-.95-1.48-1.27-.67-.38-1.38-.71-2.11-.98l-3.99-1.46c-2.24-.83-4.47-1.64-6.73-2.43-1.46-.52-2.7-.98-3.78-1.31-.2-.06-.43-.13-.61-.19-1.3-.4-2.22-.56-2.99-.57-.52-.02-1.03.08-1.51.28-.5.21-.94.53-1.31.93-.18.21-.35.42-.51.65-.15.23-.29.47-.41.71-.14.26-.26.53-.35.81-.74,2.19-1.11,4.48-1.09,6.79.01,2.09.07,4.76,1.22,6.58.28.47.65.87,1.09,1.18.82.56,1.64.64,2.5.7,1.28.09,2.53-.22,3.77-.51l12.08-2.79h.01Z"/>
  <path class="cls-1" d="M70.3,31.04c-.99-2.08-2.33-3.98-3.95-5.63-.21-.21-.43-.4-.67-.58-.22-.16-.45-.32-.68-.46-.24-.13-.49-.25-.75-.36-.5-.2-1.04-.29-1.59-.26-.52.03-1.02.17-1.48.42-.69.34-1.44.9-2.44,1.83-.14.14-.31.29-.47.44-.82.77-1.74,1.73-2.83,2.84-1.68,1.7-3.34,3.41-4.99,5.14l-2.95,3.06c-.54.56-1.03,1.16-1.47,1.8-.37.54-.64,1.15-.78,1.8-.08.49-.07,1,.04,1.49,0,.02,0,.04.01.07.23,1.01.85,1.89,1.72,2.46.87.57,1.93.77,2.95.58.16-.02.29-.05.36-.07l15.72-3.63c1.24-.29,2.5-.55,3.61-1.19.75-.43,1.46-.86,1.94-1.73.26-.48.42-1,.46-1.54.24-2.14-.88-4.57-1.78-6.46Z"/>
  <path class="cls-1" d="M42.17,37.65c1.14-1.43,1.14-3.56,1.24-5.31.34-5.83.7-11.65.99-17.48.11-2.21.35-4.39.22-6.61-.11-1.84-.12-3.94-1.28-5.45-2.05-2.66-6.41-2.44-9.38-2.03-.91.13-1.82.3-2.73.51s-1.8.45-2.68.74c-2.86.94-6.87,2.65-7.55,5.94-.38,1.86.52,3.76,1.23,5.46.85,2.06,2.02,3.91,3.08,5.85,2.81,5.11,5.67,10.19,8.53,15.28.85,1.52,1.78,3.44,3.43,4.23.11.05.22.09.33.13.74.28,1.55.33,2.32.16.05-.01.09-.02.14-.03.71-.19,1.36-.58,1.86-1.12.09-.09.18-.18.26-.27Z"/>
  <path class="cls-1" d="M40.8,53.24c-.44-.63-1.08-1.09-1.8-1.34-.73-.25-1.51-.25-2.25-.02-.17.06-.34.13-.5.21-.25.13-.49.28-.71.45-.66.49-1.21,1.12-1.71,1.75-.13.16-.24.38-.4.51l-2.53,3.48c-1.43,1.95-2.85,3.9-4.25,5.89-.91,1.28-1.71,2.36-2.33,3.32-.12.18-.24.38-.35.54-.75,1.16-1.17,2-1.39,2.76-.16.5-.22,1.03-.15,1.55.07.54.25,1.07.54,1.54.15.24.31.46.49.68.18.21.37.41.58.6.22.21.45.4.69.57,1.74,1.21,3.65,2.09,5.66,2.76,1.67.56,3.41.89,5.17.99.3.02.6,0,.9-.02.28-.02.55-.06.82-.12.27-.06.54-.14.81-.23.51-.19.98-.49,1.37-.87.37-.37.66-.82.84-1.31.29-.73.48-1.65.61-3.03.01-.2.04-.43.06-.64.1-1.14.15-2.48.22-4.05.12-2.42.22-4.83.3-7.24,0,0,.16-4.29.16-4.3.04-.99,0-2.09-.27-3.07-.12-.47-.32-.92-.58-1.33h0Z"/>
  <path class="cls-1" d="M69.34,59.96c-.53-.58-1.28-1.16-2.45-1.87-.17-.09-.37-.22-.55-.33-.98-.59-2.16-1.21-3.55-1.96-2.12-1.17-4.25-2.3-6.39-3.43l-3.79-2.01c-.2-.06-.4-.2-.58-.29-.73-.35-1.5-.67-2.3-.82-.28-.05-.56-.08-.84-.09-.18,0-.36,0-.54.03-.76.12-1.46.47-2,1.01-.54.54-.91,1.24-1.03,1.99-.06.48-.04.97.05,1.44.19,1.01.64,2.01,1.1,2.88l2.02,3.79c1.13,2.14,2.26,4.26,3.43,6.38.75,1.38,1.38,2.57,1.97,3.55.11.18.24.38.33.55.71,1.18,1.29,1.92,1.87,2.45.38.36.83.64,1.32.81.52.17,1.07.23,1.62.18.28-.03.55-.08.83-.14.27-.07.53-.16.79-.26.28-.11.55-.23.81-.38,1.54-.86,2.95-1.92,4.22-3.16,1.51-1.49,2.85-3.11,3.89-4.97.14-.26.27-.54.37-.82.1-.26.18-.52.25-.79.06-.27.11-.55.14-.83.05-.55-.01-1.1-.19-1.62-.17-.5-.45-.95-.82-1.33h0Z"/>
</svg>