<?xml version="1.0" encoding="UTF-8"?>
<svg id="Layer_1" data-name="Layer 1" xmlns="http://www.w3.org/2000/svg" viewBox="0 0 80 80">
  <defs>
    <style>
      .cls-1 {
        fill: #fff;
      }
    </style>
  </defs>
  <path class="cls-1" d="M65.56,2.58H12.94C7.17,2.58,2.5,7.26,2.5,13.02v52.62c0,5.77,4.67,10.44,10.44,10.44h27.67v-32.6h-6.89v-8.56h6.89v-2.87c0-7.73,1.64-11.49,4.93-15.28,3.29-3.79,7.23-5.69,11.83-5.69,1.98,0,4.33.31,7.05.94v11.29c-1.53-.56-2.99-.84-4.39-.84-2.04,0-4.3.87-6.04,2.6-1,1-1.88,4-1.88,6.97v2.87h11.56l-2.68,8.56h-8.88v32.6h13.44c5.77,0,10.44-4.67,10.44-10.44V13.02c0-5.77-4.67-10.44-10.44-10.44Z"/>
</svg>