<?xml version="1.0" encoding="UTF-8"?>
<svg id="Layer_1" data-name="Layer 1" xmlns="http://www.w3.org/2000/svg" viewBox="0 0 80 80">
  <defs>
    <style>
      .cls-1 {
        fill: #fff;
      }
    </style>
  </defs>
  <path class="cls-1" d="M56.04,55.65v3.1h5.12c-.21,1.33-1.55,3.9-5.12,3.9-3.08,0-5.6-2.56-5.6-5.7s2.52-5.7,5.6-5.7c1.76,0,2.93.75,3.6,1.39l2.45-2.36c-1.57-1.47-3.61-2.36-6.05-2.36-4.99,0-9.03,4.04-9.03,9.03s4.04,9.03,9.03,9.03,8.67-3.67,8.67-8.83c0-.59-.06-1.05-.14-1.5h-8.53Z"/>
  <path class="cls-1" d="M73.92,10.99c-.57-2.58-2.9-4.46-5.55-4.46H11.63c-2.65,0-4.98,1.87-5.55,4.46L1.64,31.09v.18c0,3.88,2.05,7.28,5.13,9.19v27.36c0,3.12,2.54,5.66,5.66,5.66h55.34c3.12,0,5.66-2.54,5.66-5.66v-27.48c2.97-1.93,4.94-5.27,4.94-9.06v-.18l-4.44-20.11ZM56.76,31.36c-.05,4.13-3.43,7.48-7.58,7.48s-7.58-3.4-7.58-7.58V9.75h12.49l2.67,21.61ZM25.9,9.75h12.49v21.52c0,4.18-3.4,7.58-7.58,7.58s-7.53-3.35-7.58-7.48l2.67-21.61ZM9.22,11.68c.25-1.12,1.26-1.93,2.4-1.93h11.03l-2.64,21.42v.1c0,4.18-3.4,7.58-7.58,7.58s-7.49-3.31-7.58-7.41l4.36-19.75ZM70.25,67.81c0,1.37-1.12,2.49-2.49,2.49H12.43c-1.37,0-2.49-1.12-2.49-2.49v-26.04c.8.19,1.64.29,2.5.29,3.88,0,7.28-2.06,9.19-5.13,1.9,3.08,5.31,5.13,9.19,5.13s7.28-2.06,9.19-5.13c1.9,3.08,5.31,5.13,9.19,5.13s7.28-2.06,9.19-5.13c1.9,3.08,5.31,5.13,9.19,5.13.93,0,1.83-.12,2.69-.34v26.08ZM67.56,38.85c-4.18,0-7.58-3.4-7.58-7.58v-.1l-2.64-21.42h11.03c1.15,0,2.16.81,2.4,1.93l4.36,19.75c-.09,4.1-3.45,7.41-7.58,7.41Z"/>
</svg>