<svg id="Logo" xmlns="http://www.w3.org/2000/svg" xmlns:xlink="http://www.w3.org/1999/xlink" width="68.723" height="87" viewBox="0 0 68.723 87">
  <defs>
    <clipPath id="clip-path">
      <rect id="Rectangle_28" data-name="Rectangle 28" width="68.723" height="87" fill="none"/>
    </clipPath>
  </defs>
  <g id="Group_17" data-name="Group 17" clip-path="url(#clip-path)">
    <path id="Path_61" data-name="Path 61" d="M34.362,13.244s-6.248-.293-10.732,1.368c-4.937,1.83-10.97,5.983-12.593,10.578s.2,9.189,0,11.844-.416,3.33-3.9,7.489c-1.605,1.917-6.869,3.056-7,9.434-.063,3.15,3.694,3.5,2.813,5.587C1.029,64.115-2.526,68.978,2.812,76.6,6.035,81.2,13.339,87,34.362,87h-.195c21.023,0,28.522-5.8,31.745-10.4,5.338-7.62,1.783-12.483-.144-17.054-.881-2.089,2.876-2.437,2.813-5.587-.128-6.378-5.392-7.517-7-9.434-3.481-4.159-3.694-4.835-3.9-7.489s1.624-7.25,0-11.844-7.656-8.748-12.593-10.578c-4.484-1.661-10.732-1.368-10.732-1.368" fill="#fff"/>
    <path id="Path_62" data-name="Path 62" d="M33.345,53.928c-.506-1.31.2-27.245.319-31.584-.055-.2-.11-.405-.166-.617-2.672,9.551-3.669,9.028-6.78,11.855C18.668,40.9,17.1,41.866,17.1,41.866s-3.65,7.595,5.16,16.011,10.973,8.184,10.973,8.184l.185-.089c.029-1.141.457-10.662-.077-12.044" fill="#231f20"/>
    <path id="Path_63" data-name="Path 63" d="M33.387,66.061,33.238,66a.992.992,0,0,0,.149.057" fill="#fff"/>
    <path id="Path_64" data-name="Path 64" d="M41.919,34.108c-3.9-2.26-5.887-3.02-8.342-12.381,0,0-.889,30.772-.337,32.2s.075,11.575.075,12.133c0,0,9.393-4.471,9.393-6.837S46.258,49.1,46.258,49.1s6.575-1.972,6.575-6.443-7.1-6.443-10.914-8.547" fill="#fff"/>
    <path id="Path_65" data-name="Path 65" d="M33.379,66.061H33.1c0-.1.02-.492.049-1.084.136-2.706.5-9.893.051-11.045-.556-1.439.131-30.953.161-32.208l.284.007c-.249,10.617-.608,30.99-.179,32.1.413,1.07.2,6.527-.033,11.161C33.4,65.558,33.379,65.967,33.379,66.061Z" fill="#231f20"/>
    <path id="Path_66" data-name="Path 66" d="M33.673,20.593l.266,1.014c1.1,4.193,2.151,6.821,3.407,8.522a12.138,12.138,0,0,0,4.272,3.379l.528.3c.835.46,1.83.915,2.883,1.4a31.355,31.355,0,0,1,5.446,2.93c1.837,1.359,2.73,2.82,2.73,4.469,0,1.93-1.182,3.706-3.418,5.138a15.044,15.044,0,0,1-3.234,1.539c-.437.967-3.473,7.767-3.473,9.893,0,1.1-1.581,2.592-4.834,4.549-2.333,1.4-4.7,2.533-4.72,2.544l-.029.014-.031.007a.606.606,0,0,1-.131.012c-.618,0-3.239-.579-11.038-8.028A21.036,21.036,0,0,1,17.7,52.1a14.761,14.761,0,0,1-1.409-5.293,11.3,11.3,0,0,1,.717-5.107l.036-.078.073-.045c.064-.04,1.684-1.083,9.573-8.253.488-.443.93-.81,1.32-1.133,2.093-1.735,3.143-2.606,5.377-10.588Zm-.344,45.14c.345-.166,2.5-1.216,4.627-2.5a24.512,24.512,0,0,0,3.188-2.211c1.13-.965,1.367-1.539,1.367-1.85,0-2.4,3.431-9.924,3.577-10.243l.053-.117.123-.037a14.529,14.529,0,0,0,3.227-1.519c2.088-1.339,3.146-2.9,3.146-4.653,0-3.3-4.167-5.2-7.844-6.882-1.064-.486-2.07-.945-2.924-1.417l-.005,0L41.335,34c-3.458-1.99-5.421-3.12-7.678-11.257-2.094,7.243-3.188,8.15-5.28,9.885-.385.319-.822.682-1.3,1.116-7.129,6.479-9.176,7.987-9.578,8.263a11.231,11.231,0,0,0-.635,4.794,14.212,14.212,0,0,0,1.364,5.078,20.491,20.491,0,0,0,4.462,5.984C30.637,65.455,33.052,65.73,33.329,65.734Z" fill="#231f20"/>
    <path id="Path_67" data-name="Path 67" d="M40.309,38.5c1.888,0,4.473,4.432,4.473,5.417S44,45.64,40.637,45.64s-2.872-4.1-2.872-4.1S37.313,38.5,40.309,38.5" fill="#231f20"/>
    <path id="Path_68" data-name="Path 68" d="M40.309,38.358c1.167,0,2.418,1.5,3.06,2.4a8.167,8.167,0,0,1,1.555,3.161c0,1.307-1.282,1.865-4.287,1.865a2.754,2.754,0,0,1-2.164-.879,4.812,4.812,0,0,1-.852-3.364,3.251,3.251,0,0,1,.607-2.366A2.608,2.608,0,0,1,40.309,38.358Zm.328,7.14c4,0,4-1.108,4-1.581a8.125,8.125,0,0,0-1.5-3c-1.038-1.449-2.069-2.28-2.829-2.28a2.339,2.339,0,0,0-1.865.716,3.028,3.028,0,0,0-.539,2.158l0,.019,0,.019a4.648,4.648,0,0,0,.781,3.161A2.483,2.483,0,0,0,40.637,45.5Z" fill="#231f20"/>
    <path id="Path_69" data-name="Path 69" d="M33.292,45.079,35.508,49.8l-2.216.411Z" fill="#231f20"/>
    <path id="Path_70" data-name="Path 70" d="M33.221,44.761l2.39,5.09-2.39.443ZM35.4,49.745,33.363,45.4v4.726Z" fill="#231f20"/>
    <path id="Path_71" data-name="Path 71" d="M21.627,43.364a9.223,9.223,0,0,0,3.525,1.219,14.013,14.013,0,0,0,3.724-.639,5.28,5.28,0,0,1-7.249-.58" fill="#fff"/>
    <path id="Path_72" data-name="Path 72" d="M34.484,60.1h0a.887.887,0,0,1-.811-.952l.119-1.491a.885.885,0,1,1,1.764.142l-.12,1.49a.888.888,0,0,1-.952.811" fill="#231f20"/>
    <path id="Path_73" data-name="Path 73" d="M36.232,59.695h0a.887.887,0,0,1-.811-.952l.12-1.49A.884.884,0,1,1,37.3,57.4l-.12,1.49a.885.885,0,0,1-.952.81" fill="#231f20"/>
    <path id="Path_74" data-name="Path 74" d="M37.93,58.667h0a.784.784,0,0,1-.717-.841l.106-1.317a.781.781,0,0,1,1.557.125l-.1,1.317a.785.785,0,0,1-.841.716" fill="#231f20"/>
    <path id="Path_75" data-name="Path 75" d="M39.4,57.756h0a.735.735,0,0,1-.672-.789l.1-1.235a.733.733,0,0,1,1.461.117l-.1,1.235a.735.735,0,0,1-.789.672" fill="#231f20"/>
    <path id="Path_76" data-name="Path 76" d="M34.552,0C19.81,0,7.859,2.5,7.859,5.589s11.951,5.589,26.693,5.589,26.693-2.5,26.693-5.589S49.294,0,34.552,0m0,9.643c-10.694,0-19.364-1.815-19.364-4.054s8.67-4.054,19.364-4.054S53.916,3.35,53.916,5.589s-8.67,4.054-19.364,4.054" fill="#fff"/>
    <path id="Path_77" data-name="Path 77" d="M14,57.483c0-1.132,3.948-6.689,19.226-6.689,13.131,0,18.73,4.166,18.73,6.375A3.662,3.662,0,0,1,51,59.3a5.054,5.054,0,0,0,1.578-3.119c0-2.5-5.793-7.211-19.378-7.211-15.8,0-19.89,6.285-19.89,7.566,0,.76.531,2.41,2.572,4.027A4.6,4.6,0,0,1,14,57.483" fill="#231f20"/>
    <path id="Path_78" data-name="Path 78" d="M32.4,64.669l.31,0-.31,0" fill="#231f20"/>
    <path id="Path_79" data-name="Path 79" d="M31.87,64.66l.075,0h.017l-.092,0" fill="#231f20"/>
    <path id="Path_80" data-name="Path 80" d="M33.223,50.794c13.131,0,18.731,4.166,18.731,6.374s-4.652,7.8-19.942,7.5C16.527,64.357,14,58.975,14,57.483c0-1.133,3.948-6.689,19.226-6.689" fill="#fff"/>
    <path id="Path_81" data-name="Path 81" d="M52.58,56.029c.72,5.225.045,11.54-2.164,15.263-4.715,7.944-8.941,10.325-8.941,10.325a21.224,21.224,0,0,1-7.933,1.534,22.5,22.5,0,0,1-8.565-1.419s-4.1-1.73-8.524-10.4c-2.083-4.078-3.146-14.624-3.146-14.624s1,7.965,20.208,7.965S52.58,56.029,52.58,56.029" fill="#231f20"/>
    <path id="Path_82" data-name="Path 82" d="M49.167,73.635c9.419,0,11.921-7.064,12.176-10.124s-2.04-7.482-4.591-7.482S52.9,59.216,52.9,59.216l-.233,3.233c.443-.255,1.708-2.339,3.493-2.339s2.611,3.646,1.87,5.356c-1.1,2.551-3.069,6.562-7.953,6.562Z" fill="#231f20"/>
    <path id="Path_83" data-name="Path 83" d="M30.7,65.557q-3.534,0-7.637-.4l.139-1.414a56.181,56.181,0,0,0,15.165-.214c4.116-.75,6.222-2.033,7.264-2.978a3.728,3.728,0,0,0,1.423-2.68c0-.558-.99-1.5-3.781-2.306a37.54,37.54,0,0,0-9.9-1.206,34.649,34.649,0,0,0-8,.943c-2.551.662-4.013,1.573-4.013,2.5.026.134.618.762,3.026,1.326a32.228,32.228,0,0,0,6.993.732,13.049,13.049,0,0,0,5.231-.931c.928-.433,1.338-.9,1.425-1.169a5.319,5.319,0,0,0-1.937-.708,19.417,19.417,0,0,0-4.064-.428,7.641,7.641,0,0,0-3.263.56,6.449,6.449,0,0,0,1.785.391c.943.11,1.806.122,1.814.122l-.018,1.421a20.827,20.827,0,0,1-2.325-.178c-.779-.109-2.847-.4-2.847-1.729,0-1.482,2.615-2.007,4.854-2.007a20.147,20.147,0,0,1,4.795.563c1.78.458,2.646,1.077,2.646,1.891,0,1.757-2.837,3.624-8.095,3.624a33.256,33.256,0,0,1-7.494-.812c-2.655-.647-3.945-1.52-3.945-2.668,0-1.7,1.708-3,5.078-3.875a36.172,36.172,0,0,1,8.354-.989,38.434,38.434,0,0,1,10.3,1.263c3.144.912,4.806,2.182,4.806,3.671A5.013,5.013,0,0,1,46.583,61.6c-1.691,1.533-4.445,2.682-7.964,3.323A44.557,44.557,0,0,1,30.7,65.557Z" fill="#231f20"/>
    <path id="Path_84" data-name="Path 84" d="M50.073,72.312v-.568a6.77,6.77,0,0,0,5.187-2.235,14.1,14.1,0,0,0,2.506-4.156,5.228,5.228,0,0,0-.481-4.2,1.448,1.448,0,0,0-1.129-.757c-1.2,0-2.19,1.1-2.782,1.752a2.929,2.929,0,0,1-.569.549l-.283-.493a3.54,3.54,0,0,0,.431-.437c.655-.726,1.752-1.94,3.2-1.94a1.942,1.942,0,0,1,1.6,1.014,5.8,5.8,0,0,1,.528,4.739A14.6,14.6,0,0,1,55.674,69.9,7.4,7.4,0,0,1,50.073,72.312Z" fill="#231f20"/>
    <path id="Path_85" data-name="Path 85" d="M49.167,73.919v-.568a13.771,13.771,0,0,0,5.723-1.126,10.249,10.249,0,0,0,3.586-2.689,11.27,11.27,0,0,0,2.584-6.05,8.79,8.79,0,0,0-2.132-6,3.173,3.173,0,0,0-2.176-1.173c-2.333,0-3.58,2.98-3.592,3.011l-.526-.215a7.376,7.376,0,0,1,1.013-1.665,4.03,4.03,0,0,1,3.1-1.7A3.626,3.626,0,0,1,59.346,57.1a9.277,9.277,0,0,1,2.28,6.433A11.7,11.7,0,0,1,58.907,69.9a10.813,10.813,0,0,1-3.783,2.837A14.332,14.332,0,0,1,49.167,73.919Z" fill="#231f20"/>
    <path id="Path_86" data-name="Path 86" d="M33.542,83.435a22.629,22.629,0,0,1-8.679-1.443,10.221,10.221,0,0,1-2.684-2A31.736,31.736,0,0,1,16.2,71.462c-2.083-4.079-3.132-14.292-3.176-14.725l.565-.057c.011.1,1.082,10.54,3.116,14.523a31.28,31.28,0,0,0,5.831,8.341,9.961,9.961,0,0,0,2.551,1.926l.006,0a22.5,22.5,0,0,0,8.448,1.394,21.2,21.2,0,0,0,7.8-1.5A15.619,15.619,0,0,0,44,79.207a38.573,38.573,0,0,0,6.169-8.06,18.679,18.679,0,0,0,2.143-6.96,31.294,31.294,0,0,0-.016-8.119l.563-.078c.785,5.7-.1,11.9-2.2,15.447a39.084,39.084,0,0,1-6.286,8.2,15.4,15.4,0,0,1-2.76,2.227l-.023.011A21.3,21.3,0,0,1,33.542,83.435Z" fill="#231f20"/>
    <path id="Path_87" data-name="Path 87" d="M32.943,48.688a41.567,41.567,0,0,1,14.338,2.219,13.192,13.192,0,0,1,4.077,2.314,3.849,3.849,0,0,1,1.506,2.808c0,1.413-1.006,3.558-3.83,5.338a19.794,19.794,0,0,1-6.072,2.374,44.983,44.983,0,0,1-10.018.989c-7.181,0-12.591-1.025-16.081-3.046-2.4-1.392-3.839-3.316-3.839-5.145,0-1.554,1.991-3.516,5.072-5C20.806,50.241,25.582,48.688,32.943,48.688Zm0,15.474a44.422,44.422,0,0,0,9.889-.975,19.235,19.235,0,0,0,5.9-2.3,8.838,8.838,0,0,0,2.836-2.693,4.142,4.142,0,0,0,.729-2.164c0-1.643-1.9-3.316-5.218-4.592a41,41,0,0,0-14.134-2.181c-7.254,0-11.945,1.522-14.6,2.8-3.281,1.577-4.75,3.388-4.75,4.484,0,.609.256,2.743,3.556,4.654a20.022,20.022,0,0,0,5.9,2.094A49.2,49.2,0,0,0,32.943,64.162Z" fill="#231f20"/>
    <path id="Path_88" data-name="Path 88" d="M21.437,67.074c1.214.488.363,7.729.363,7.729l.98,5.188s-.835.545-2.25-.58-1.778-6.193-1.778-6.193.218-7.136,2.685-6.144" fill="#fff"/>
    <path id="Path_89" data-name="Path 89" d="M20.984,66.7a1.5,1.5,0,0,1,.559.115c.439.177.929.827.815,4.32-.055,1.7-.238,3.373-.271,3.662l1.007,5.332-.159.1a1.392,1.392,0,0,1-.731.178,3.044,3.044,0,0,1-1.851-.774c-.642-.51-1.154-1.751-1.522-3.688a26.126,26.126,0,0,1-.363-2.707v-.029a22.275,22.275,0,0,1,.356-3.165C19.255,67.822,19.982,66.7,20.984,66.7Zm1.473,13.116-.944-5,.005-.043c0-.018.212-1.823.272-3.661.112-3.442-.4-3.748-.459-3.772a.937.937,0,0,0-.347-.074c-.671,0-1.24,1.024-1.6,2.884a22.117,22.117,0,0,0-.346,3.066c.1,1.387.594,5.12,1.67,5.976a2.469,2.469,0,0,0,1.5.65A1.134,1.134,0,0,0,22.457,79.812Z" fill="#231f20"/>
    <path id="Path_90" data-name="Path 90" d="M24.557,82.178a1.811,1.811,0,0,0,1.693-.47l-.725-4.33s.387-8.926-1.379-9.168C21.639,67.867,21.8,74.8,21.8,74.8l.98,5.32s.568,1.862,1.778,2.056" fill="#fff"/>
    <path id="Path_91" data-name="Path 91" d="M24.958,82.495h0a2.832,2.832,0,0,1-.446-.036c-1.369-.22-1.979-2.171-2-2.254l-.008-.031-.984-5.342v-.023c0-.2-.1-4.914,1.366-6.411a1.486,1.486,0,0,1,1.088-.484,1.6,1.6,0,0,1,.215.015c1.2.164,1.485,2.9,1.6,4.941.116,2.108.039,4.215.029,4.491l.741,4.428-.082.1A1.983,1.983,0,0,1,24.958,82.495Zm-1.9-2.442c.053.162.577,1.689,1.547,1.845a2.262,2.262,0,0,0,.356.029,1.53,1.53,0,0,0,.987-.319L25.24,77.4v-.03c0-.022.095-2.247-.027-4.469-.224-4.079-.961-4.385-1.107-4.405a.913.913,0,0,0-.82.3c-1.07,1.1-1.233,4.664-1.205,5.978Z" fill="#231f20"/>
    <path id="Path_92" data-name="Path 92" d="M28.041,84.2a3.093,3.093,0,0,0,1.668-.847l-.834-5.926s-.236-6.556-1.826-6.846c-1.819-.332-1.525,6.8-1.525,6.8l.726,4.33s-.1,2.516,1.791,2.492" fill="#fff"/>
    <path id="Path_93" data-name="Path 93" d="M28.014,84.484a1.771,1.771,0,0,1-1.329-.539,3.4,3.4,0,0,1-.72-2.217L25.24,77.39c0-.014-.055-1.379.031-2.873.119-2.055.443-3.372.964-3.915a.941.941,0,0,1,.693-.317.96.96,0,0,1,.172.016c.8.146,1.371,1.379,1.739,3.768a33.145,33.145,0,0,1,.319,3.332l.852,6.055-.1.1a3.342,3.342,0,0,1-1.862.927Zm-2.207-7.136.728,4.341v.029a2.926,2.926,0,0,0,.562,1.834,1.208,1.208,0,0,0,.918.363h.023a2.576,2.576,0,0,0,1.369-.672l-.816-5.807a32.492,32.492,0,0,0-.314-3.286c-.45-2.919-1.093-3.257-1.279-3.291a.391.391,0,0,0-.07-.007.376.376,0,0,0-.283.142C25.783,71.894,25.747,75.868,25.807,77.349Z" fill="#231f20"/>
    <path id="Path_94" data-name="Path 94" d="M31.185,84.1c1.355,0,1.961-1.572,1.961-1.572l-1.332-4.717s-.363-6.677-2.1-6.749-.834,6.362-.834,6.362l.834,5.926a1.876,1.876,0,0,0,1.476.75" fill="#fff"/>
    <path id="Path_95" data-name="Path 95" d="M31.185,84.387a2.156,2.156,0,0,1-1.711-.875l-.037-.055-.843-5.991c-.073-.521-.687-5.125.376-6.348a.92.92,0,0,1,.751-.338c.885.037,1.53,1.225,1.973,3.634a30.791,30.791,0,0,1,.4,3.351l1.349,4.778-.034.088C33.383,82.7,32.717,84.387,31.185,84.387ZM29.98,83.241a1.577,1.577,0,0,0,1.205.578c.977,0,1.521-1.01,1.66-1.309l-1.313-4.65,0-.031a30.144,30.144,0,0,0-.4-3.316,10.586,10.586,0,0,0-.623-2.251c-.18-.409-.467-.9-.815-.914a.35.35,0,0,0-.3.143c-.757.872-.431,4.552-.242,5.9Z" fill="#231f20"/>
    <path id="Path_96" data-name="Path 96" d="M40.389,82.752a3.713,3.713,0,0,1-2.174.37q-.131-.775-.263-1.55l2.173-.37Z" fill="#fff"/>
    <path id="Path_97" data-name="Path 97" d="M38.707,83.438a4.1,4.1,0,0,1-.529-.035l-.208-.027-.035-.207q-.13-.775-.263-1.549l-.048-.28,2.733-.465.347,2.036-.187.095a3.981,3.981,0,0,1-1.81.433Zm-.248-.577a3.416,3.416,0,0,0,1.614-.274l-.18-1.057L38.28,81.8Q38.37,82.332,38.459,82.861Z" fill="#231f20"/>
    <path id="Path_98" data-name="Path 98" d="M43.665,81.373a4.458,4.458,0,0,1-2.069.734l-.42-1.646,2.069-.734Z" fill="#fff"/>
    <path id="Path_99" data-name="Path 99" d="M41.381,82.412l-.544-2.132,2.606-.925L43.99,81.5l-.167.112a4.742,4.742,0,0,1-2.2.781Zm.135-1.77L41.81,81.8a4.182,4.182,0,0,0,1.529-.551L43.047,80.1Z" fill="#231f20"/>
    <path id="Path_100" data-name="Path 100" d="M46.191,78.832a3.17,3.17,0,0,1-.406.406,3.392,3.392,0,0,1-1.4.693q-.2-.825-.409-1.65l1.811-1.1Z" fill="#fff"/>
    <path id="Path_101" data-name="Path 101" d="M44.172,80.272,44.1,80q-.2-.825-.409-1.65l-.051-.2,2.32-1.408L46.5,78.9l-.092.111a3.465,3.465,0,0,1-.442.442,3.642,3.642,0,0,1-1.522.751Zm.125-1.856q.145.582.288,1.164A3.032,3.032,0,0,0,45.6,79.02a2.9,2.9,0,0,0,.277-.264l-.28-1.131Z" fill="#231f20"/>
    <path id="Path_102" data-name="Path 102" d="M48.509,75.738a2.868,2.868,0,0,1-.3.617A3.017,3.017,0,0,1,47.1,77.373q-.266-.807-.533-1.615L48.1,74.539Z" fill="#fff"/>
    <path id="Path_103" data-name="Path 103" d="M48.241,74.065l.568,1.673-.032.092a3.156,3.156,0,0,1-.329.678,3.3,3.3,0,0,1-1.212,1.114l-.3.161-.106-.323q-.2-.606-.4-1.213l-.195-.59Zm-.033,1.669-.245-.722-1.062.844.07.213.288.871a2.686,2.686,0,0,0,.712-.74A2.589,2.589,0,0,0,48.208,75.735Z" fill="#231f20"/>
    <rect id="Rectangle_20" data-name="Rectangle 20" width="1.835" height="4.539" transform="translate(36.934 76.121) rotate(-13.074)" fill="#fff"/>
    <path id="Rectangle_21" data-name="Rectangle 21" d="M-.107-.107H1.941V4.645H-.107ZM1.728.106H.106V4.432H1.728Z" transform="translate(36.934 76.121) rotate(-13.074)" fill="#231f20"/>
    <rect id="Rectangle_22" data-name="Rectangle 22" width="2.013" height="2.829" transform="translate(35.743 72.64) rotate(-19.533)" fill="#fff"/>
    <path id="Rectangle_23" data-name="Rectangle 23" d="M-.106-.106H2.119V2.935H-.106ZM1.906.107H.107V2.722h1.8Z" transform="translate(35.743 72.64) rotate(-19.533)" fill="#231f20"/>
    <rect id="Rectangle_24" data-name="Rectangle 24" width="1.79" height="4.539" transform="translate(40.144 74.724) rotate(-13.074)" fill="#fff"/>
    <path id="Rectangle_25" data-name="Rectangle 25" d="M-.106-.107h2V4.645h-2Zm1.79.213H.107V4.432H1.684Z" transform="translate(40.144 74.724) rotate(-13.074)" fill="#231f20"/>
    <rect id="Rectangle_26" data-name="Rectangle 26" width="2.013" height="2.829" transform="translate(38.953 71.243) rotate(-19.533)" fill="#fff"/>
    <path id="Rectangle_27" data-name="Rectangle 27" d="M-.106-.106H2.119V2.935H-.106ZM1.906.107H.107V2.722h1.8Z" transform="translate(38.953 71.243) rotate(-19.533)" fill="#231f20"/>
    <path id="Path_104" data-name="Path 104" d="M45.552,76.646l-1.437,1.086-.948-4.262L44.6,72.384Z" fill="#fff"/>
    <path id="Path_105" data-name="Path 105" d="M44.047,77.917l-1-4.491L44.672,72.2l1,4.491Zm-.761-4.4.9,4.033,1.25-.945-.9-4.033Z" fill="#231f20"/>
    <path id="Path_106" data-name="Path 106" d="M44.656,71.584l-1.74.925-.946-2.666,1.74-.925Z" fill="#fff"/>
    <path id="Path_107" data-name="Path 107" d="M42.857,72.661l-1.018-2.869,1.93-1.026,1.018,2.869ZM42.1,69.894l.874,2.463,1.55-.824-.874-2.463Z" fill="#231f20"/>
    <path id="Path_108" data-name="Path 108" d="M48.036,74.013l-1.465,1.239L45.8,71.8l1.465-1.239Z" fill="#fff"/>
    <path id="Path_109" data-name="Path 109" d="M46.506,75.447l-.819-3.685,1.649-1.394.819,3.685Zm-.583-3.605.715,3.215,1.281-1.084L47.2,70.758Z" fill="#231f20"/>
    <path id="Path_110" data-name="Path 110" d="M47.1,70.071,45.6,71.224l-.946-2.666,1.494-1.153Z" fill="#fff"/>
    <path id="Path_111" data-name="Path 111" d="M45.551,71.4,44.53,68.521l1.671-1.29,1.021,2.877Zm-.769-2.8.871,2.455,1.317-1.016L46.1,67.579Z" fill="#231f20"/>
  </g>
</svg>
